<svg width="102" height="142" viewBox="0 0 102 142" fill="none" xmlns="http://www.w3.org/2000/svg">
<g filter="url(#filter0_i_31_2152)">
<rect x="47.4863" width="6.61111" height="119" rx="3.30556" fill="#181818"/>
</g>
<rect x="59.0557" y="3.63611" width="16.5278" height="0.991667" fill="white"/>
<rect x="59.0557" y="41.65" width="16.5278" height="0.991667" fill="white"/>
<rect x="59.0557" y="11.2389" width="9.91667" height="0.991667" fill="white"/>
<rect x="59.0557" y="18.8417" width="9.91667" height="0.991667" fill="white"/>
<rect x="59.0557" y="26.4445" width="9.91667" height="0.991667" fill="white"/>
<rect x="59.0557" y="34.0472" width="9.91667" height="0.991667" fill="white"/>
<rect x="59.0557" y="79.6639" width="16.5278" height="0.991667" fill="white"/>
<rect x="59.0557" y="117.678" width="16.5278" height="0.991667" fill="white"/>
<rect x="59.0557" y="49.2528" width="9.91667" height="0.991667" fill="white"/>
<rect x="59.0557" y="87.2666" width="9.91667" height="0.991667" fill="white"/>
<rect x="59.0557" y="56.8556" width="9.91667" height="0.991667" fill="white"/>
<rect x="59.0557" y="94.8694" width="9.91667" height="0.991667" fill="white"/>
<rect x="59.0557" y="64.4584" width="9.91667" height="0.991667" fill="white"/>
<rect x="59.0557" y="102.472" width="9.91667" height="0.991667" fill="white"/>
<rect x="59.0557" y="72.061" width="9.91667" height="0.991667" fill="white"/>
<rect x="59.0557" y="110.075" width="9.91667" height="0.991667" fill="white"/>
<rect width="16.5278" height="0.991667" transform="matrix(-1 0 0 1 42.5273 3.63611)" fill="white"/>
<rect width="16.5278" height="0.991667" transform="matrix(-1 0 0 1 42.5273 41.65)" fill="white"/>
<rect width="9.91667" height="0.991667" transform="matrix(-1 0 0 1 42.5273 11.2389)" fill="white"/>
<rect width="9.91667" height="0.991667" transform="matrix(-1 0 0 1 42.5273 18.8417)" fill="white"/>
<rect width="9.91667" height="0.991667" transform="matrix(-1 0 0 1 42.5273 26.4445)" fill="white"/>
<rect width="9.91667" height="0.991667" transform="matrix(-1 0 0 1 42.5273 34.0472)" fill="white"/>
<rect width="16.5278" height="0.991667" transform="matrix(-1 0 0 1 42.5273 79.6639)" fill="white"/>
<rect width="16.5278" height="0.991667" transform="matrix(-1 0 0 1 42.5273 117.678)" fill="white"/>
<rect width="9.91667" height="0.991667" transform="matrix(-1 0 0 1 42.5273 49.2528)" fill="white"/>
<rect width="9.91667" height="0.991667" transform="matrix(-1 0 0 1 42.5273 87.2666)" fill="white"/>
<rect width="9.91667" height="0.991667" transform="matrix(-1 0 0 1 42.5273 56.8556)" fill="white"/>
<rect width="9.91667" height="0.991667" transform="matrix(-1 0 0 1 42.5273 94.8694)" fill="white"/>
<rect width="9.91667" height="0.991667" transform="matrix(-1 0 0 1 42.5273 64.4584)" fill="white"/>
<rect width="9.91667" height="0.991667" transform="matrix(-1 0 0 1 42.5273 102.472)" fill="white"/>
<rect width="9.91667" height="0.991667" transform="matrix(-1 0 0 1 42.5273 72.061)" fill="white"/>
<rect width="9.91667" height="0.991667" transform="matrix(-1 0 0 1 42.5273 110.075)" fill="white"/>
<g filter="url(#filter1_d_31_2152)">
<rect x="35.2559" y="35.7" width="31.7333" height="46.2778" rx="15" fill="url(#paint0_linear_31_2152)"/>
<rect x="36.7559" y="37.2" width="28.7333" height="43.2778" rx="13.5" stroke="url(#paint1_linear_31_2152)" stroke-width="3"/>
</g>
<rect x="35.2559" y="57.186" width="31.7333" height="3.30556" fill="#BCBCBC"/>
<g opacity="0.45" filter="url(#filter2_i_31_2152)">
<rect x="35.2559" y="43.964" width="31.7333" height="1.65278" fill="#424242"/>
</g>
<g opacity="0.45" filter="url(#filter3_i_31_2152)">
<rect x="35.2559" y="47.2694" width="31.7333" height="1.65278" fill="#424242"/>
</g>
<g opacity="0.45" filter="url(#filter4_i_31_2152)">
<rect x="35.2559" y="50.575" width="31.7333" height="1.65278" fill="#424242"/>
</g>
<g opacity="0.45" filter="url(#filter5_i_31_2152)">
<rect x="35.2559" y="65.45" width="31.7333" height="1.65278" fill="#424242"/>
</g>
<g opacity="0.45" filter="url(#filter6_i_31_2152)">
<rect x="35.2559" y="68.7556" width="31.7333" height="1.65278" fill="#424242"/>
</g>
<g opacity="0.45" filter="url(#filter7_i_31_2152)">
<rect x="35.2559" y="72.061" width="31.7333" height="1.65278" fill="#424242"/>
</g>
<defs>
<filter id="filter0_i_31_2152" x="47.4863" y="0" width="6.61133" height="121" filterUnits="userSpaceOnUse" color-interpolation-filters="sRGB">
<feFlood flood-opacity="0" result="BackgroundImageFix"/>
<feBlend mode="normal" in="SourceGraphic" in2="BackgroundImageFix" result="shape"/>
<feColorMatrix in="SourceAlpha" type="matrix" values="0 0 0 0 0 0 0 0 0 0 0 0 0 0 0 0 0 0 127 0" result="hardAlpha"/>
<feOffset dy="4"/>
<feGaussianBlur stdDeviation="1"/>
<feComposite in2="hardAlpha" operator="arithmetic" k2="-1" k3="1"/>
<feColorMatrix type="matrix" values="0 0 0 0 0 0 0 0 0 0 0 0 0 0 0 0 0 0 0.6 0"/>
<feBlend mode="normal" in2="shape" result="effect1_innerShadow_31_2152"/>
</filter>
<filter id="filter1_d_31_2152" x="0.255859" y="25.7" width="101.733" height="116.278" filterUnits="userSpaceOnUse" color-interpolation-filters="sRGB">
<feFlood flood-opacity="0" result="BackgroundImageFix"/>
<feColorMatrix in="SourceAlpha" type="matrix" values="0 0 0 0 0 0 0 0 0 0 0 0 0 0 0 0 0 0 127 0" result="hardAlpha"/>
<feOffset dy="25"/>
<feGaussianBlur stdDeviation="17.5"/>
<feColorMatrix type="matrix" values="0 0 0 0 0 0 0 0 0 0 0 0 0 0 0 0 0 0 0.55 0"/>
<feBlend mode="normal" in2="BackgroundImageFix" result="effect1_dropShadow_31_2152"/>
<feBlend mode="normal" in="SourceGraphic" in2="effect1_dropShadow_31_2152" result="shape"/>
</filter>
<filter id="filter2_i_31_2152" x="35.2559" y="43.964" width="31.7334" height="2.65283" filterUnits="userSpaceOnUse" color-interpolation-filters="sRGB">
<feFlood flood-opacity="0" result="BackgroundImageFix"/>
<feBlend mode="normal" in="SourceGraphic" in2="BackgroundImageFix" result="shape"/>
<feColorMatrix in="SourceAlpha" type="matrix" values="0 0 0 0 0 0 0 0 0 0 0 0 0 0 0 0 0 0 127 0" result="hardAlpha"/>
<feOffset dy="1"/>
<feGaussianBlur stdDeviation="1"/>
<feComposite in2="hardAlpha" operator="arithmetic" k2="-1" k3="1"/>
<feColorMatrix type="matrix" values="0 0 0 0 0 0 0 0 0 0 0 0 0 0 0 0 0 0 0.8 0"/>
<feBlend mode="normal" in2="shape" result="effect1_innerShadow_31_2152"/>
</filter>
<filter id="filter3_i_31_2152" x="35.2559" y="47.2694" width="31.7334" height="2.65283" filterUnits="userSpaceOnUse" color-interpolation-filters="sRGB">
<feFlood flood-opacity="0" result="BackgroundImageFix"/>
<feBlend mode="normal" in="SourceGraphic" in2="BackgroundImageFix" result="shape"/>
<feColorMatrix in="SourceAlpha" type="matrix" values="0 0 0 0 0 0 0 0 0 0 0 0 0 0 0 0 0 0 127 0" result="hardAlpha"/>
<feOffset dy="1"/>
<feGaussianBlur stdDeviation="1"/>
<feComposite in2="hardAlpha" operator="arithmetic" k2="-1" k3="1"/>
<feColorMatrix type="matrix" values="0 0 0 0 0 0 0 0 0 0 0 0 0 0 0 0 0 0 0.8 0"/>
<feBlend mode="normal" in2="shape" result="effect1_innerShadow_31_2152"/>
</filter>
<filter id="filter4_i_31_2152" x="35.2559" y="50.575" width="31.7334" height="2.65283" filterUnits="userSpaceOnUse" color-interpolation-filters="sRGB">
<feFlood flood-opacity="0" result="BackgroundImageFix"/>
<feBlend mode="normal" in="SourceGraphic" in2="BackgroundImageFix" result="shape"/>
<feColorMatrix in="SourceAlpha" type="matrix" values="0 0 0 0 0 0 0 0 0 0 0 0 0 0 0 0 0 0 127 0" result="hardAlpha"/>
<feOffset dy="1"/>
<feGaussianBlur stdDeviation="1"/>
<feComposite in2="hardAlpha" operator="arithmetic" k2="-1" k3="1"/>
<feColorMatrix type="matrix" values="0 0 0 0 0 0 0 0 0 0 0 0 0 0 0 0 0 0 0.8 0"/>
<feBlend mode="normal" in2="shape" result="effect1_innerShadow_31_2152"/>
</filter>
<filter id="filter5_i_31_2152" x="35.2559" y="65.45" width="31.7334" height="2.65283" filterUnits="userSpaceOnUse" color-interpolation-filters="sRGB">
<feFlood flood-opacity="0" result="BackgroundImageFix"/>
<feBlend mode="normal" in="SourceGraphic" in2="BackgroundImageFix" result="shape"/>
<feColorMatrix in="SourceAlpha" type="matrix" values="0 0 0 0 0 0 0 0 0 0 0 0 0 0 0 0 0 0 127 0" result="hardAlpha"/>
<feOffset dy="1"/>
<feGaussianBlur stdDeviation="1"/>
<feComposite in2="hardAlpha" operator="arithmetic" k2="-1" k3="1"/>
<feColorMatrix type="matrix" values="0 0 0 0 0 0 0 0 0 0 0 0 0 0 0 0 0 0 0.8 0"/>
<feBlend mode="normal" in2="shape" result="effect1_innerShadow_31_2152"/>
</filter>
<filter id="filter6_i_31_2152" x="35.2559" y="68.7556" width="31.7334" height="2.65283" filterUnits="userSpaceOnUse" color-interpolation-filters="sRGB">
<feFlood flood-opacity="0" result="BackgroundImageFix"/>
<feBlend mode="normal" in="SourceGraphic" in2="BackgroundImageFix" result="shape"/>
<feColorMatrix in="SourceAlpha" type="matrix" values="0 0 0 0 0 0 0 0 0 0 0 0 0 0 0 0 0 0 127 0" result="hardAlpha"/>
<feOffset dy="1"/>
<feGaussianBlur stdDeviation="1"/>
<feComposite in2="hardAlpha" operator="arithmetic" k2="-1" k3="1"/>
<feColorMatrix type="matrix" values="0 0 0 0 0 0 0 0 0 0 0 0 0 0 0 0 0 0 0.8 0"/>
<feBlend mode="normal" in2="shape" result="effect1_innerShadow_31_2152"/>
</filter>
<filter id="filter7_i_31_2152" x="35.2559" y="72.061" width="31.7334" height="2.65283" filterUnits="userSpaceOnUse" color-interpolation-filters="sRGB">
<feFlood flood-opacity="0" result="BackgroundImageFix"/>
<feBlend mode="normal" in="SourceGraphic" in2="BackgroundImageFix" result="shape"/>
<feColorMatrix in="SourceAlpha" type="matrix" values="0 0 0 0 0 0 0 0 0 0 0 0 0 0 0 0 0 0 127 0" result="hardAlpha"/>
<feOffset dy="1"/>
<feGaussianBlur stdDeviation="1"/>
<feComposite in2="hardAlpha" operator="arithmetic" k2="-1" k3="1"/>
<feColorMatrix type="matrix" values="0 0 0 0 0 0 0 0 0 0 0 0 0 0 0 0 0 0 0.8 0"/>
<feBlend mode="normal" in2="shape" result="effect1_innerShadow_31_2152"/>
</filter>
<linearGradient id="paint0_linear_31_2152" x1="51.1225" y1="35.7" x2="51.1225" y2="81.9777" gradientUnits="userSpaceOnUse">
<stop stop-color="#202020"/>
<stop offset="1" stop-color="#4B4B4B"/>
</linearGradient>
<linearGradient id="paint1_linear_31_2152" x1="51.1225" y1="35.7" x2="51.1225" y2="81.9777" gradientUnits="userSpaceOnUse">
<stop stop-color="#606060"/>
<stop offset="0.140625" stop-color="#0E0E0E" stop-opacity="0"/>
<stop offset="0.484375" stop-color="#0E0E0E" stop-opacity="0"/>
<stop offset="0.864583" stop-color="#0E0E0E" stop-opacity="0"/>
<stop offset="1" stop-color="#0E0E0E"/>
</linearGradient>
</defs>
</svg>
